<svg width="33" height="32" viewBox="0 0 33 32" fill="none" xmlns="http://www.w3.org/2000/svg">
<path id="Vector" d="M16.5 0C25.3365 0 32.5 7.18978 32.5 16.0588C32.5 24.2692 26.3607 31.0396 18.4384 32V20.9661L22.7668 20.9661L23.6646 16.0588H18.4384V14.3232C18.4384 13.0266 18.6918 12.1289 19.2732 11.5554C19.8545 10.9819 20.7638 10.7325 22.0756 10.7325C22.4076 10.7325 22.7132 10.7359 22.9844 10.7425C23.3788 10.7521 23.7003 10.7688 23.9241 10.7924V6.34387C23.8346 6.31893 23.729 6.29399 23.6108 6.26945C23.3428 6.21383 23.0096 6.16022 22.6515 6.11314C21.9031 6.01474 21.0457 5.94484 20.4459 5.94484C18.0232 5.94484 16.1923 6.46504 14.9143 7.54254C13.3719 8.84293 12.6348 10.9551 12.6348 13.9442V16.0588H9.33546V20.9661H12.6348V31.6447C5.66576 29.9093 0.5 23.5901 0.5 16.0588C0.5 7.18978 7.66346 0 16.5 0Z" fill="#D9D9D9"/>
</svg>
