<svg width="217" height="56" viewBox="0 0 217 56" fill="none" xmlns="http://www.w3.org/2000/svg">
<g id="Group 14">
<g id="Group 12">
<path id="Intersect" d="M49.8296 44.368C35.9994 30.6446 34.5589 21.0456 35.4294 13.6117C36.5175 4.3193 23.8242 0.362868 19.0338 5.43669C14.2433 10.5105 7.23169 31.0905 30.4669 38.3328L49.8296 44.368Z" fill="#BA99BB"/>
<path id="Intersect_2" d="M19.33 44.4285C33.1603 30.7051 34.6007 21.1062 33.7302 13.6722C32.6422 4.37985 45.3355 0.423415 50.1259 5.49723C54.9164 10.571 61.928 31.1511 38.6927 38.3933L19.33 44.4285Z" fill="#DAC2E2"/>
<path id="Intersect_3" d="M49.8213 44.2192C32.9561 33.2235 29.1818 23.7724 28.1939 16.0284C26.9591 6.34838 13.6139 5.03956 10.1994 11.2221C6.78485 17.4047 5.03585 39.8269 29.4643 42.2227L49.8213 44.2192Z" fill="#A48AAD"/>
<path id="Intersect_4" d="M19.3384 44.2821C36.2036 33.2865 39.9779 23.8354 40.9658 16.0914C42.2006 6.41137 55.5458 5.10255 58.9603 11.2851C62.3748 17.4677 64.1238 39.8899 39.6954 42.2857L19.3384 44.2821Z" fill="#BA99BB"/>
<path id="Intersect_5" d="M19.3336 44.7177C38.3693 37.2921 44.284 28.5151 47.0796 20.8535C50.5741 11.2764 63.887 12.9245 65.7506 19.98C67.6141 27.0355 64.0109 50.2487 39.6415 47.2318L19.3336 44.7177Z" fill="#A48AAD"/>
<path id="Intersect_6" d="M33.643 46.9839C37.8986 46.4571 38.8561 39.9913 35.317 37.56C27.3422 32.0814 23.9865 26.3396 22.0806 21.1162C18.5861 11.5391 5.27318 13.1872 3.4096 20.2427C1.54601 27.2982 5.14927 50.5114 29.5187 47.4945L33.643 46.9839Z" fill="#B199BA"/>
</g>
<g id="Group 13">
<g id="DVOSTOK">
<path id="Vector" d="M198.625 29.4543V8.75H203.716V18.6669L210.234 8.75H215.977L208.993 18.9778L216.474 29.4543H210.358L203.716 19.3198V29.4543H198.625Z" fill="#A48AAD"/>
<path id="Vector_2" d="M195.625 19.0196C195.625 20.4911 195.387 21.8797 194.911 23.1853C194.435 24.4703 193.742 25.5998 192.832 26.5739C191.942 27.548 190.845 28.3251 189.541 28.9054C188.238 29.465 186.748 29.7448 185.071 29.7448C183.395 29.7448 181.895 29.465 180.571 28.9054C179.267 28.3251 178.16 27.548 177.249 26.5739C176.359 25.5998 175.676 24.4703 175.2 23.1853C174.745 21.8797 174.518 20.4911 174.518 19.0196C174.518 17.5481 174.745 16.1699 175.2 14.885C175.676 13.5793 176.359 12.4394 177.249 11.4654C178.16 10.4913 179.267 9.72446 180.571 9.16488C181.895 8.58458 183.395 8.29443 185.071 8.29443C186.748 8.29443 188.238 8.58458 189.541 9.16488C190.845 9.72446 191.942 10.4913 192.832 11.4654C193.742 12.4394 194.435 13.5793 194.911 14.885C195.387 16.1699 195.625 17.5481 195.625 19.0196ZM185.071 25.7034C185.961 25.7034 186.748 25.5376 187.431 25.206C188.113 24.8744 188.683 24.4185 189.138 23.8382C189.614 23.2372 189.966 22.5325 190.193 21.7242C190.421 20.8952 190.535 19.9937 190.535 19.0196C190.535 18.0455 190.421 17.1544 190.193 16.3461C189.966 15.5171 189.614 14.8124 189.138 14.2321C188.683 13.6311 188.113 13.1648 187.431 12.8332C186.748 12.5016 185.961 12.3358 185.071 12.3358C184.161 12.3358 183.364 12.5016 182.681 12.8332C182.019 13.1648 181.45 13.6311 180.974 14.2321C180.519 14.8124 180.177 15.5171 179.95 16.3461C179.722 17.1544 179.608 18.0455 179.608 19.0196C179.608 19.9937 179.722 20.8952 179.95 21.7242C180.177 22.5325 180.519 23.2372 180.974 23.8382C181.45 24.4185 182.019 24.8744 182.681 25.206C183.364 25.5376 184.161 25.7034 185.071 25.7034Z" fill="#A48AAD"/>
<path id="Vector_3" d="M173.488 8.66772V12.7091H167.932V29.372H162.841V12.7091H157.285V8.66772H173.488Z" fill="#A48AAD"/>
<path id="Vector_4" d="M155.973 23.1853C155.973 24.0972 155.787 24.9573 155.414 25.7656C155.063 26.5532 154.545 27.2474 153.862 27.8485C153.179 28.4288 152.352 28.8951 151.379 29.2474C150.406 29.579 149.299 29.7448 148.058 29.7448C146.92 29.7448 145.781 29.6205 144.643 29.3718C143.505 29.1231 142.45 28.7604 141.477 28.2837L142.501 24.3978C143.226 24.7501 144.043 25.061 144.954 25.3304C145.864 25.5791 146.847 25.7034 147.903 25.7034C148.772 25.7034 149.486 25.548 150.044 25.2371C150.603 24.9055 150.882 24.377 150.882 23.6517C150.882 23.1335 150.634 22.6672 150.137 22.2527C149.661 21.8175 148.782 21.3615 147.499 20.8849C145.471 20.118 143.991 19.2476 143.06 18.2735C142.129 17.2787 141.663 16.0145 141.663 14.4808C141.663 12.4705 142.315 10.9369 143.619 9.8799C144.943 8.82292 146.764 8.29443 149.082 8.29443C150.262 8.29443 151.389 8.42915 152.466 8.69857C153.542 8.94727 154.452 9.27887 155.197 9.69337L154.328 13.5171C153.604 13.1648 152.807 12.885 151.938 12.6778C151.089 12.4498 150.21 12.3358 149.299 12.3358C148.534 12.3358 147.913 12.4705 147.437 12.7399C146.982 12.9886 146.754 13.4239 146.754 14.0456C146.754 14.3358 146.795 14.5845 146.878 14.7917C146.961 14.999 147.106 15.1959 147.313 15.3824C147.54 15.5689 147.851 15.7554 148.244 15.942C148.637 16.1285 149.134 16.3461 149.734 16.5948C150.603 16.9471 151.42 17.3202 152.186 17.7139C152.952 18.1077 153.614 18.5637 154.173 19.0818C154.732 19.5999 155.166 20.1906 155.476 20.8538C155.808 21.517 155.973 22.2942 155.973 23.1853Z" fill="#A48AAD"/>
<path id="Vector_5" d="M139.333 19.0196C139.333 20.4911 139.095 21.8797 138.619 23.1853C138.143 24.4703 137.45 25.5998 136.54 26.5739C135.65 27.548 134.553 28.3251 133.249 28.9054C131.946 29.465 130.456 29.7448 128.779 29.7448C127.103 29.7448 125.603 29.465 124.279 28.9054C122.975 28.3251 121.868 27.548 120.957 26.5739C120.067 25.5998 119.384 24.4703 118.908 23.1853C118.453 21.8797 118.226 20.4911 118.226 19.0196C118.226 17.5481 118.453 16.1699 118.908 14.885C119.384 13.5793 120.067 12.4394 120.957 11.4654C121.868 10.4913 122.975 9.72446 124.279 9.16488C125.603 8.58458 127.103 8.29443 128.779 8.29443C130.456 8.29443 131.946 8.58458 133.249 9.16488C134.553 9.72446 135.65 10.4913 136.54 11.4654C137.45 12.4394 138.143 13.5793 138.619 14.885C139.095 16.1699 139.333 17.5481 139.333 19.0196ZM128.779 25.7034C129.669 25.7034 130.456 25.5376 131.139 25.206C131.821 24.8744 132.391 24.4185 132.846 23.8382C133.322 23.2372 133.674 22.5325 133.901 21.7242C134.129 20.8952 134.243 19.9937 134.243 19.0196C134.243 18.0455 134.129 17.1544 133.901 16.3461C133.674 15.5171 133.322 14.8124 132.846 14.2321C132.391 13.6311 131.821 13.1648 131.139 12.8332C130.456 12.5016 129.669 12.3358 128.779 12.3358C127.869 12.3358 127.072 12.5016 126.389 12.8332C125.727 13.1648 125.158 13.6311 124.682 14.2321C124.227 14.8124 123.885 15.5171 123.658 16.3461C123.43 17.1544 123.316 18.0455 123.316 19.0196C123.316 19.9937 123.43 20.8952 123.658 21.7242C123.885 22.5325 124.227 23.2372 124.682 23.8382C125.158 24.4185 125.727 24.8744 126.389 25.206C127.072 25.5376 127.869 25.7034 128.779 25.7034Z" fill="#A48AAD"/>
<path id="Vector_6" d="M110.496 29.372H104.784L97.8003 8.66772H103.139L107.64 24.4291L112.141 8.66772H117.48L110.496 29.372Z" fill="#A48AAD"/>
<path id="Vector_7" d="M78.75 8.66772H85.0513C86.8724 8.66772 88.5382 8.92679 90.0489 9.44491C91.5802 9.96304 92.8839 10.678 93.96 11.5899C95.0361 12.5019 95.8742 13.6003 96.4743 14.8852C97.0745 16.1495 97.3745 17.5277 97.3745 19.0199C97.3745 20.5121 97.0745 21.9006 96.4743 23.1856C95.8742 24.4498 95.0361 25.5379 93.96 26.4498C92.8839 27.3617 91.5802 28.0767 90.0489 28.5948C88.5382 29.1129 86.8724 29.372 85.0513 29.372H78.75V8.66772ZM85.3617 25.3306C86.3964 25.3306 87.338 25.1856 88.1864 24.8954C89.0349 24.6053 89.7592 24.1908 90.3593 23.6519C90.9801 23.1131 91.4561 22.4602 91.7872 21.6934C92.1183 20.9058 92.2838 20.0147 92.2838 19.0199C92.2838 18.0251 92.1183 17.1442 91.7872 16.3774C91.4561 15.5899 90.9801 14.9267 90.3593 14.3878C89.7592 13.849 89.0349 13.4345 88.1864 13.1443C87.338 12.8542 86.3964 12.7091 85.3617 12.7091H83.8407V25.3306H85.3617Z" fill="#A48AAD"/>
</g>
<g id="new life your design">
<path id="Vector_8" d="M209.006 44.4611V36.8913H211.094V37.9172C211.347 37.513 211.669 37.2177 212.059 37.0312C212.449 36.8343 212.877 36.7358 213.341 36.7358C213.836 36.7358 214.258 36.8395 214.606 37.0467C214.965 37.254 215.255 37.5338 215.476 37.8861C215.698 38.228 215.861 38.6322 215.967 39.0985C216.072 39.5544 216.125 40.0311 216.125 40.5285V44.4611H213.958V40.513C213.958 39.829 213.847 39.3109 213.625 38.9586C213.414 38.6063 213.061 38.4301 212.565 38.4301C212.249 38.4301 211.975 38.5026 211.743 38.6477C211.511 38.7928 211.321 38.9638 211.173 39.1607V44.4611H209.006Z" fill="#A48AAD"/>
<path id="Vector_9" d="M207.716 36.8913V38.3058H206.498C206.677 38.6063 206.767 38.9534 206.767 39.3472C206.767 39.7099 206.693 40.0467 206.545 40.3575C206.398 40.6684 206.187 40.943 205.912 41.1814C205.638 41.4093 205.301 41.5907 204.9 41.7254C204.499 41.8497 204.046 41.9119 203.539 41.9119C203.518 41.9119 203.481 41.9119 203.429 41.9119C203.386 41.9119 203.334 41.9067 203.27 41.8964C203.218 41.9793 203.175 42.057 203.144 42.1295C203.112 42.1917 203.096 42.2746 203.096 42.3782C203.096 42.5544 203.175 42.6787 203.334 42.7513C203.492 42.8238 203.697 42.8704 203.951 42.8912L205.216 42.9689C206.007 43.0207 206.624 43.1969 207.067 43.4974C207.521 43.7979 207.748 44.2849 207.748 44.9585C207.748 45.4144 207.621 45.8186 207.368 46.1709C207.125 46.5232 206.798 46.8186 206.387 47.0569C205.976 47.3056 205.501 47.4921 204.963 47.6165C204.436 47.7512 203.887 47.8185 203.318 47.8185C202.875 47.8185 202.448 47.7823 202.036 47.7097C201.625 47.6476 201.256 47.5387 200.929 47.3833C200.613 47.2279 200.359 47.0258 200.17 46.7771C199.98 46.5388 199.885 46.2434 199.885 45.8911C199.885 45.632 199.943 45.4041 200.059 45.2072C200.175 45.0207 200.322 44.8549 200.502 44.7098C200.692 44.5751 200.903 44.4663 201.135 44.3834C201.377 44.2901 201.625 44.2124 201.878 44.1502C201.657 44.0362 201.483 43.8963 201.356 43.7305C201.229 43.5544 201.166 43.3419 201.166 43.0932C201.166 42.9171 201.198 42.7565 201.261 42.6114C201.335 42.4663 201.419 42.3368 201.514 42.2228C201.62 42.1088 201.736 42.0104 201.862 41.9275C201.989 41.8446 202.115 41.7772 202.242 41.7254C201.62 41.5492 201.14 41.2539 200.802 40.8394C200.475 40.4145 200.312 39.9171 200.312 39.3472C200.312 38.9741 200.38 38.6322 200.518 38.3213C200.665 38.0001 200.876 37.7255 201.15 37.4975C201.425 37.2591 201.762 37.0726 202.163 36.9379C202.564 36.8032 203.022 36.7358 203.539 36.7358C203.75 36.7358 203.951 36.7514 204.14 36.7825C204.341 36.8032 204.531 36.8395 204.71 36.8913H207.716ZM202.859 44.3989C202.648 44.5129 202.437 44.6528 202.226 44.8186C202.026 44.9844 201.926 45.2072 201.926 45.487C201.926 45.8082 202.063 46.0414 202.337 46.1864C202.622 46.3419 203.007 46.4196 203.492 46.4196C203.766 46.4196 204.035 46.3937 204.299 46.3419C204.573 46.2901 204.815 46.2123 205.026 46.1087C205.237 46.0155 205.406 45.8963 205.533 45.7512C205.67 45.6061 205.738 45.4352 205.738 45.2383C205.738 44.9896 205.633 44.8134 205.422 44.7098C205.222 44.6165 204.953 44.5595 204.615 44.5388L202.859 44.3989ZM203.539 40.5596C203.94 40.5596 204.262 40.4508 204.504 40.2332C204.747 40.0052 204.868 39.7047 204.868 39.3316C204.868 38.9482 204.747 38.6477 204.504 38.4301C204.272 38.2021 203.951 38.0881 203.539 38.0881C203.128 38.0881 202.801 38.197 202.558 38.4146C202.326 38.6322 202.21 38.9379 202.21 39.3316C202.21 39.7151 202.332 40.0156 202.574 40.2332C202.817 40.4508 203.139 40.5596 203.539 40.5596Z" fill="#A48AAD"/>
<path id="Vector_10" d="M196.569 44.461V36.8912H198.736V44.461H196.569ZM196.395 34.684C196.395 34.342 196.511 34.0519 196.743 33.8136C196.975 33.5752 197.276 33.4561 197.645 33.4561C198.014 33.4561 198.315 33.5752 198.547 33.8136C198.789 34.0519 198.91 34.342 198.91 34.684C198.91 35.0156 198.789 35.3058 198.547 35.5545C198.315 35.7928 198.014 35.912 197.645 35.912C197.276 35.912 196.975 35.7928 196.743 35.5545C196.511 35.3058 196.395 35.0156 196.395 34.684Z" fill="#A48AAD"/>
<path id="Vector_11" d="M195.104 42.0984C195.104 42.5026 195.019 42.8653 194.851 43.1865C194.682 43.4974 194.45 43.7616 194.155 43.9792C193.859 44.1865 193.511 44.3471 193.11 44.4611C192.71 44.5647 192.272 44.6165 191.797 44.6165C191.397 44.6165 190.959 44.5699 190.484 44.4766C190.02 44.3937 189.614 44.2797 189.266 44.1347L189.583 42.6269C189.92 42.7616 190.268 42.8704 190.627 42.9533C190.985 43.0259 191.349 43.0621 191.718 43.0621C192.077 43.0621 192.372 43.0103 192.604 42.9067C192.847 42.8031 192.968 42.6166 192.968 42.3471C192.968 42.1088 192.852 41.9378 192.62 41.8342C192.388 41.7202 192.082 41.5855 191.702 41.4301C191.397 41.3057 191.101 41.1814 190.817 41.057C190.532 40.9223 190.279 40.7669 190.057 40.5907C189.846 40.4042 189.672 40.1917 189.535 39.9534C189.409 39.7047 189.345 39.399 189.345 39.0363C189.345 38.6425 189.419 38.3006 189.567 38.0104C189.725 37.7203 189.936 37.4819 190.2 37.2954C190.474 37.1089 190.79 36.969 191.149 36.8757C191.518 36.7825 191.913 36.7358 192.335 36.7358C192.778 36.7358 193.2 36.7773 193.601 36.8602C194.012 36.9327 194.408 37.0674 194.787 37.2643L194.455 38.7721C194.149 38.6374 193.828 38.5286 193.49 38.4457C193.163 38.3524 192.831 38.3058 192.493 38.3058C192.188 38.3058 191.94 38.342 191.75 38.4146C191.571 38.4767 191.481 38.6166 191.481 38.8342C191.481 39.0415 191.592 39.1969 191.813 39.3006C192.035 39.4042 192.298 39.5234 192.604 39.6581C192.826 39.7513 193.079 39.8601 193.364 39.9845C193.659 40.0985 193.933 40.2487 194.186 40.4353C194.439 40.6218 194.656 40.8498 194.835 41.1192C195.014 41.3782 195.104 41.7047 195.104 42.0984Z" fill="#A48AAD"/>
<path id="Vector_12" d="M184.951 36.7358C185.457 36.7358 185.905 36.8136 186.295 36.969C186.696 37.1244 187.028 37.3472 187.292 37.6374C187.556 37.9172 187.756 38.2591 187.893 38.6633C188.03 39.057 188.099 39.5026 188.099 40C188.099 40.2073 188.083 40.4197 188.052 40.6373C188.03 40.8446 187.993 41.0363 187.941 41.2124H183.369C183.39 41.772 183.564 42.2176 183.891 42.5492C184.218 42.8808 184.74 43.0466 185.457 43.0466C185.868 43.0466 186.269 43.0103 186.659 42.9378C187.05 42.8549 187.398 42.7409 187.703 42.5958L187.972 44.0414C187.593 44.2279 187.16 44.3678 186.675 44.4611C186.19 44.5647 185.689 44.6165 185.172 44.6165C184.529 44.6165 183.959 44.5233 183.464 44.3367C182.968 44.1502 182.546 43.886 182.198 43.544C181.86 43.202 181.602 42.7927 181.423 42.316C181.243 41.829 181.154 41.2953 181.154 40.715C181.154 40.1244 181.238 39.5855 181.407 39.0985C181.586 38.6011 181.839 38.1814 182.166 37.8394C182.493 37.4871 182.889 37.2177 183.353 37.0312C183.827 36.8343 184.36 36.7358 184.951 36.7358ZM184.824 38.1659C184.381 38.1659 184.038 38.3213 183.796 38.6322C183.564 38.9327 183.427 39.3161 183.384 39.7824H186.026C186.079 39.2954 186.005 38.9068 185.805 38.6166C185.605 38.3161 185.278 38.1659 184.824 38.1659Z" fill="#A48AAD"/>
<path id="Vector_13" d="M179.599 44.4609H177.526V43.4817C177.273 43.8133 176.946 44.0879 176.546 44.3055C176.155 44.5128 175.691 44.6164 175.153 44.6164C174.71 44.6164 174.299 44.5231 173.919 44.3366C173.55 44.1397 173.229 43.8703 172.954 43.5283C172.691 43.1864 172.48 42.7822 172.322 42.3159C172.174 41.8392 172.1 41.3211 172.1 40.7615C172.1 40.1087 172.206 39.5336 172.417 39.0362C172.627 38.5284 172.912 38.1087 173.271 37.7771C173.629 37.4352 174.046 37.1761 174.521 36.9999C175.006 36.8238 175.523 36.7357 176.071 36.7357C176.345 36.7357 176.593 36.7564 176.815 36.7979C177.047 36.829 177.252 36.8756 177.432 36.9378V33.4871H179.599V44.4609ZM175.897 42.9687C176.234 42.9687 176.525 42.9066 176.767 42.7822C177.02 42.6475 177.242 42.4765 177.432 42.2693V38.5077C177.136 38.4041 176.788 38.3523 176.387 38.3523C175.691 38.3523 175.164 38.5647 174.805 38.9895C174.447 39.404 174.267 39.9843 174.267 40.7304C174.267 41.0517 174.299 41.3522 174.362 41.632C174.426 41.9014 174.521 42.1346 174.647 42.3315C174.784 42.5283 174.953 42.6838 175.153 42.7978C175.364 42.9118 175.612 42.9687 175.897 42.9687Z" fill="#A48AAD"/>
<path id="Vector_14" d="M167.943 38.7101H167.579C167.041 38.7101 166.593 38.793 166.235 38.9588C165.876 39.1246 165.591 39.3629 165.38 39.6738V44.4612H163.213V36.8914H165.301V38.2282C165.449 37.7826 165.681 37.4355 165.997 37.1868C166.324 36.9381 166.757 36.8137 167.295 36.8137C167.537 36.8137 167.753 36.8396 167.943 36.8914V38.7101Z" fill="#A48AAD"/>
<path id="Vector_15" d="M161.151 36.8914V44.4612H159.062V43.4353C158.788 43.8394 158.461 44.1399 158.081 44.3368C157.702 44.5233 157.28 44.6166 156.816 44.6166C156.32 44.6166 155.898 44.513 155.55 44.3057C155.202 44.0985 154.917 43.8239 154.696 43.4819C154.485 43.1296 154.332 42.7254 154.237 42.2695C154.142 41.8032 154.095 41.3213 154.095 40.8239V36.8914H156.262V40.8395C156.262 41.5234 156.357 42.0415 156.547 42.3938C156.747 42.7462 157.095 42.9223 157.591 42.9223C157.907 42.9223 158.182 42.8498 158.414 42.7047C158.646 42.5596 158.836 42.3887 158.983 42.1918V36.8914H161.151Z" fill="#A48AAD"/>
<path id="Vector_16" d="M152.681 40.684C152.681 41.2332 152.591 41.7461 152.412 42.2228C152.243 42.6995 151.99 43.1191 151.652 43.4818C151.315 43.8342 150.898 44.1139 150.402 44.3212C149.917 44.5181 149.353 44.6165 148.71 44.6165C148.066 44.6165 147.497 44.5181 147.001 44.3212C146.516 44.1139 146.105 43.8342 145.767 43.4818C145.43 43.1191 145.171 42.6995 144.992 42.2228C144.823 41.7461 144.739 41.2332 144.739 40.684C144.739 40.1347 144.823 39.6218 144.992 39.1451C145.171 38.6684 145.43 38.2539 145.767 37.9016C146.105 37.5389 146.516 37.254 147.001 37.0467C147.497 36.8395 148.066 36.7358 148.71 36.7358C149.353 36.7358 149.917 36.8395 150.402 37.0467C150.898 37.254 151.315 37.5389 151.652 37.9016C151.99 38.2539 152.243 38.6684 152.412 39.1451C152.591 39.6218 152.681 40.1347 152.681 40.684ZM150.513 40.684C150.513 40.3731 150.482 40.0777 150.418 39.798C150.355 39.5078 150.25 39.2539 150.102 39.0363C149.965 38.8187 149.78 38.6477 149.548 38.5234C149.316 38.3887 149.037 38.3213 148.71 38.3213C148.372 38.3213 148.087 38.3887 147.855 38.5234C147.634 38.6477 147.449 38.8187 147.302 39.0363C147.165 39.2539 147.064 39.5078 147.001 39.798C146.938 40.0777 146.906 40.3731 146.906 40.684C146.906 40.9948 146.938 41.2902 147.001 41.5699C147.064 41.8497 147.165 42.0984 147.302 42.316C147.449 42.5337 147.634 42.7098 147.855 42.8445C148.087 42.9689 148.372 43.0311 148.71 43.0311C149.037 43.0311 149.316 42.9689 149.548 42.8445C149.78 42.7098 149.965 42.5337 150.102 42.316C150.25 42.0984 150.355 41.8497 150.418 41.5699C150.482 41.2902 150.513 40.9948 150.513 40.684Z" fill="#A48AAD"/>
<path id="Vector_17" d="M138.328 47.6632L139.372 44.6943L136.54 36.8914H138.787L140.416 42.5182L141.982 36.8914H144.181L140.495 47.6632H138.328Z" fill="#A48AAD"/>
<path id="Vector_18" d="M129.44 36.7358C129.946 36.7358 130.394 36.8136 130.785 36.969C131.185 37.1244 131.518 37.3472 131.781 37.6374C132.045 37.9172 132.245 38.2591 132.383 38.6633C132.52 39.057 132.588 39.5026 132.588 40C132.588 40.2073 132.572 40.4197 132.541 40.6373C132.52 40.8446 132.483 41.0363 132.43 41.2124H127.858C127.879 41.772 128.053 42.2176 128.38 42.5492C128.707 42.8808 129.229 43.0466 129.946 43.0466C130.358 43.0466 130.758 43.0103 131.149 42.9378C131.539 42.8549 131.887 42.7409 132.193 42.5958L132.462 44.0414C132.082 44.2279 131.65 44.3678 131.164 44.4611C130.679 44.5647 130.178 44.6165 129.661 44.6165C129.018 44.6165 128.449 44.5233 127.953 44.3367C127.457 44.1502 127.035 43.886 126.687 43.544C126.35 43.202 126.091 42.7927 125.912 42.316C125.733 41.829 125.643 41.2953 125.643 40.715C125.643 40.1244 125.727 39.5855 125.896 39.0985C126.075 38.6011 126.329 38.1814 126.656 37.8394C126.983 37.4871 127.378 37.2177 127.842 37.0312C128.317 36.8343 128.849 36.7358 129.44 36.7358ZM129.313 38.1659C128.87 38.1659 128.528 38.3213 128.285 38.6322C128.053 38.9327 127.916 39.3161 127.874 39.7824H130.516C130.568 39.2954 130.495 38.9068 130.294 38.6166C130.094 38.3161 129.767 38.1659 129.313 38.1659Z" fill="#A48AAD"/>
<path id="Vector_19" d="M121.095 44.4611V38.5545H119.845V36.8913H121.095V36.6271C121.095 35.4975 121.379 34.6685 121.949 34.1401C122.529 33.6012 123.299 33.3318 124.259 33.3318C124.501 33.3318 124.739 33.3473 124.971 33.3784C125.213 33.3991 125.445 33.451 125.667 33.5339L125.54 35.1349C125.414 35.0934 125.271 35.0675 125.113 35.0571C124.965 35.0364 124.818 35.0261 124.67 35.0261C124.185 35.0261 123.826 35.1452 123.594 35.3836C123.362 35.6115 123.246 35.9949 123.246 36.5338V36.8913H125.129V38.5545H123.246V44.4611H121.095Z" fill="#A48AAD"/>
<path id="Vector_20" d="M116.339 44.461V36.8912H118.506V44.461H116.339ZM116.165 34.684C116.165 34.342 116.281 34.0519 116.513 33.8136C116.745 33.5752 117.046 33.4561 117.415 33.4561C117.784 33.4561 118.085 33.5752 118.317 33.8136C118.559 34.0519 118.68 34.342 118.68 34.684C118.68 35.0156 118.559 35.3058 118.317 35.5545C118.085 35.7928 117.784 35.912 117.415 35.912C117.046 35.912 116.745 35.7928 116.513 35.5545C116.281 35.3058 116.165 35.0156 116.165 34.684Z" fill="#A48AAD"/>
<path id="Vector_21" d="M113.699 42.2693C113.699 42.5076 113.747 42.689 113.842 42.8133C113.947 42.9273 114.121 42.9843 114.364 42.9843C114.459 42.9843 114.559 42.9791 114.664 42.9687C114.77 42.9584 114.87 42.9428 114.965 42.9221L115.044 44.4143C114.865 44.4661 114.643 44.5076 114.379 44.5387C114.116 44.5801 113.857 44.6008 113.604 44.6008C113.214 44.6008 112.887 44.5438 112.623 44.4299C112.36 44.3055 112.143 44.1449 111.975 43.948C111.817 43.7408 111.7 43.5128 111.627 43.2641C111.563 43.005 111.532 42.7408 111.532 42.4713V33.4871H113.699V42.2693Z" fill="#A48AAD"/>
<path id="Vector_22" d="M103.778 41.8809L105.028 36.8914H107.101L104.886 44.4612H102.861L101.026 39.1297L99.1906 44.4612H97.1655L94.9507 36.8914H97.0232L98.273 41.8809L99.9658 36.8914H102.086L103.778 41.8809Z" fill="#A48AAD"/>
<path id="Vector_23" d="M91.1407 36.7358C91.6469 36.7358 92.0951 36.8136 92.4854 36.969C92.8862 37.1244 93.2184 37.3472 93.4821 37.6374C93.7457 37.9172 93.9461 38.2591 94.0832 38.6633C94.2204 39.057 94.2889 39.5026 94.2889 40C94.2889 40.2073 94.2731 40.4197 94.2415 40.6373C94.2204 40.8446 94.1834 41.0363 94.1307 41.2124H89.5586C89.5797 41.772 89.7537 42.2176 90.0807 42.5492C90.4076 42.8808 90.9297 43.0466 91.6469 43.0466C92.0582 43.0466 92.459 43.0103 92.8493 42.9378C93.2395 42.8549 93.5875 42.7409 93.8934 42.5958L94.1624 44.0414C93.7827 44.2279 93.3502 44.3678 92.8651 44.4611C92.3799 44.5647 91.8789 44.6165 91.3621 44.6165C90.7188 44.6165 90.1492 44.5233 89.6535 44.3367C89.1578 44.1502 88.7359 43.886 88.3879 43.544C88.0504 43.202 87.792 42.7927 87.6127 42.316C87.4334 41.829 87.3438 41.2953 87.3438 40.715C87.3438 40.1244 87.4281 39.5855 87.5969 39.0985C87.7762 38.6011 88.0293 38.1814 88.3563 37.8394C88.6832 37.4871 89.0787 37.2177 89.5428 37.0312C90.0174 36.8343 90.55 36.7358 91.1407 36.7358ZM91.0141 38.1659C90.5711 38.1659 90.2283 38.3213 89.9858 38.6322C89.7537 38.9327 89.6166 39.3161 89.5744 39.7824H92.2164C92.2692 39.2954 92.1953 38.9068 91.995 38.6166C91.7946 38.3161 91.4676 38.1659 91.0141 38.1659Z" fill="#A48AAD"/>
<path id="Vector_24" d="M78.75 44.4611V36.8913H80.8383V37.9172C81.0914 37.513 81.4131 37.2177 81.8033 37.0312C82.1936 36.8343 82.6207 36.7358 83.0848 36.7358C83.5805 36.7358 84.0024 36.8395 84.3504 37.0467C84.709 37.254 84.9991 37.5338 85.2206 37.8861C85.442 38.228 85.6055 38.6322 85.711 39.0985C85.8165 39.5544 85.8692 40.0311 85.8692 40.5285V44.4611H83.7018V40.513C83.7018 39.829 83.591 39.3109 83.3696 38.9586C83.1586 38.6063 82.8053 38.4301 82.3096 38.4301C81.9932 38.4301 81.719 38.5026 81.4869 38.6477C81.2549 38.7928 81.0651 38.9638 80.9174 39.1607V44.4611H78.75Z" fill="#A48AAD"/>
</g>
</g>
</g>
</svg>
