<svg width="33" height="32" viewBox="0 0 33 32" fill="none" xmlns="http://www.w3.org/2000/svg">
<g id="Vector">
<path d="M25.0269 9.36283C23.9673 9.3649 23.1057 8.50694 23.1037 7.44731C23.1016 6.38768 23.9596 5.52609 25.0197 5.52402C26.0798 5.52195 26.9414 6.38042 26.9435 7.44005C26.945 8.49968 26.087 9.36076 25.0269 9.36283Z" fill="#D9D9D9"/>
<path fill-rule="evenodd" clip-rule="evenodd" d="M16.5153 24.2147C11.9788 24.2235 8.29347 20.5532 8.28467 16.0155C8.27584 11.479 11.9471 7.79308 16.4837 7.78427C21.0212 7.77546 24.7071 11.4479 24.7159 15.9839C24.7247 20.5215 21.0523 24.2059 16.5153 24.2147ZM16.4894 10.6671C13.5449 10.6723 11.1613 13.0648 11.1664 16.0098C11.1721 18.9554 13.5651 21.3386 16.5096 21.3329C19.4552 21.3271 21.8388 18.9352 21.833 15.9896C21.8274 13.044 19.4344 10.6614 16.4894 10.6671Z" fill="#D9D9D9"/>
<path fill-rule="evenodd" clip-rule="evenodd" d="M5.99227 0.861972C7.00835 0.463834 8.17111 0.19115 9.87354 0.110798C11.5801 0.0288968 12.125 0.010228 16.4692 0.00193683C20.8144 -0.00635437 21.3592 0.0102248 23.0658 0.0859112C24.7688 0.159524 25.9321 0.428065 26.9502 0.822058C28.0036 1.22797 28.8973 1.77438 29.7879 2.66137C30.6786 3.5494 31.227 4.44003 31.6381 5.49187C32.0357 6.50899 32.3084 7.67074 32.3893 9.37423C32.4701 11.0803 32.4898 11.6246 32.4981 15.9694C32.5064 20.3137 32.4888 20.859 32.4141 22.5667C32.34 24.2686 32.072 25.4324 31.678 26.4501C31.2711 27.5035 30.7257 28.3972 29.8387 29.2878C28.9517 30.179 28.0601 30.7269 27.0083 31.1385C25.9911 31.5356 24.8294 31.8083 23.127 31.8897C21.4204 31.9706 20.8756 31.9898 16.5298 31.9981C12.1861 32.0064 11.6413 31.9898 9.93473 31.9146C8.23177 31.8399 7.06796 31.5719 6.05033 31.1785C4.99695 30.771 4.10323 30.2261 3.21261 29.3386C2.32148 28.4511 1.77251 27.56 1.36194 26.5081C0.96381 25.4915 0.692143 24.3293 0.610764 22.6273C0.529381 20.9202 0.510207 20.3748 0.501919 16.0306C0.493599 11.6858 0.510716 11.1415 0.585356 9.43487C0.660533 7.7314 0.927516 6.56808 1.32151 5.54941C1.72844 4.49652 2.27379 3.60331 3.16182 2.71217C4.0488 1.82155 4.94044 1.27202 5.99227 0.861972ZM7.08872 28.4905C7.65325 28.7077 8.5003 28.9669 10.0602 29.0348C11.7481 29.1079 12.2535 29.124 16.5246 29.1157C20.7973 29.1079 21.3028 29.0898 22.9901 29.0105C24.5485 28.9363 25.3955 28.674 25.9585 28.4542C26.7055 28.1623 27.2374 27.8135 27.7962 27.2541C28.355 26.6927 28.7008 26.1592 28.9901 25.4122C29.2078 24.8471 29.4665 23.9995 29.5344 22.4396C29.6086 20.7527 29.6241 20.2468 29.6158 15.9746C29.608 11.7034 29.5899 11.1975 29.5095 9.51005C29.4359 7.95119 29.1741 7.10411 28.9538 6.54164C28.662 5.79358 28.3141 5.26274 27.7532 4.70337C27.1923 4.14401 26.6588 3.79926 25.9108 3.51C25.3473 3.29175 24.4992 3.03358 22.9404 2.96567C21.2524 2.89154 20.7465 2.87649 16.4743 2.8848C12.2032 2.89309 11.6978 2.91019 10.0104 2.99004C8.45107 3.06416 7.60502 3.32596 7.041 3.54629C6.2945 3.83814 5.76262 4.18496 5.20328 4.7464C4.64494 5.30783 4.29917 5.84023 4.00992 6.58882C3.79324 7.15285 3.53246 8.00096 3.4656 9.55982C3.39197 11.2477 3.37644 11.7537 3.38473 16.0249C3.39251 20.2971 3.41065 20.803 3.48997 22.4894C3.56306 24.0493 3.82691 24.8953 4.04621 25.4599C4.33806 26.2059 4.68592 26.7378 5.24631 27.2971C5.80774 27.8544 6.34117 28.2012 7.08872 28.4905Z" fill="#D9D9D9"/>
</g>
</svg>
