<svg width="119" height="58" viewBox="0 0 119 58" fill="none" xmlns="http://www.w3.org/2000/svg">
<path id="Vector" d="M86.512 5.58491C84.5635 2.34138 81.0748 0.138895 77.0741 0.00925964L77.0623 0H51.6372C50.6682 0 49.7176 0.334673 48.9639 0.948457L43.9784 5.00684H19.3096V1.74876H0.368164V39.4515H19.3096V35.7278H27.1273C27.0511 36.8019 27.4174 37.9012 28.2328 38.7174L46.2985 56.8267C47.039 57.5688 48.0093 57.9391 48.9797 57.9391C49.9565 57.9391 50.9334 57.5635 51.6753 56.8134L54.5455 53.9072L57.5352 56.6137C58.558 57.5397 59.8487 58 61.1381 58C62.4997 58 63.86 57.4867 64.9012 56.4669L65.2859 56.0899C65.9621 55.4271 66.4256 54.6282 66.6816 53.7776L67.3578 54.484C68.3688 55.5396 69.7265 56.1256 71.1852 56.1441H71.2404C72.6755 56.1441 74.024 55.5859 75.0389 54.5673C75.7309 53.8742 76.197 53.0328 76.4373 52.1399C77.2999 52.7299 78.3162 53.0514 79.3823 53.0606H79.4427C80.8739 53.0606 82.2211 52.5024 83.2413 51.4838C83.9805 50.7391 84.465 49.8277 84.6816 48.866C85.4484 49.284 86.3111 49.5128 87.2066 49.5221C87.2249 49.5261 87.2433 49.5261 87.2617 49.5261C88.6968 49.5261 90.0453 48.9639 91.0602 47.9453C93.1466 45.8619 93.1794 42.4345 91.1338 40.3087L89.6291 38.7425L102.138 34.4447H118.539V5.58491H86.512ZM115.77 8.37472V21.8026H91.336L86.7168 17.1489C87.6359 15.4888 88.1611 13.5787 88.1611 11.5455C88.1611 10.4449 88.0049 9.3827 87.7186 8.3734L115.77 8.37472ZM85.392 11.5468C85.392 16.3751 81.4937 20.3038 76.6999 20.3038C71.9074 20.3038 68.0078 16.3751 68.0078 11.5468C68.0078 6.71856 71.9074 2.78981 76.6999 2.78981C81.4923 2.78981 85.392 6.71724 85.392 11.5468ZM65.2386 11.5468C65.2386 12.2611 65.3069 12.9596 65.4303 13.6395L63.7589 11.9146L54.0807 9.30598C55.3753 8.44615 56.2327 6.9699 56.2327 5.2939C56.2327 4.37586 55.9714 3.52 55.5263 2.78981H69.242C66.7932 4.90896 65.2386 8.04666 65.2386 11.5468ZM51.4665 7.30589C50.3649 7.30589 49.4681 6.40241 49.4681 5.2939C49.4681 4.18538 50.3649 3.2819 51.4665 3.2819C52.5681 3.2819 53.4636 4.18538 53.4636 5.2939C53.4636 6.40241 52.5668 7.30589 51.4665 7.30589ZM50.961 10.0692L44.0493 15.7004C41.5756 17.7138 38.02 17.5008 35.8049 15.2547L46.8053 6.29791C47.2294 8.30197 48.9009 9.84965 50.961 10.0692ZM16.5392 36.6591H3.1373V4.53724H16.5392V36.6591ZM32.852 39.4105L30.1853 36.7371C29.9896 36.5413 29.882 36.2808 29.8806 36.003C29.8806 35.7252 29.987 35.4633 30.1813 35.2675L34.0389 31.3625C34.4433 30.9525 34.983 30.7263 35.5568 30.7249H35.562C36.1332 30.7249 36.6715 30.9485 37.0772 31.3559L37.4304 31.7091C38.2695 32.5504 38.301 33.9513 37.4646 34.7966L32.8533 39.4661L32.852 39.4105ZM41.569 34.5955C42.4041 33.7489 43.767 33.7449 44.606 34.5876L44.9592 34.9407C45.7982 35.7821 45.8022 37.1551 44.9658 38.0004L38.2393 44.8116L34.8412 41.4053L41.569 34.5955ZM43.6016 50.1848L40.2048 46.7799L46.0057 40.9053C46.8421 40.0772 48.1905 40.0772 49.0243 40.9119L49.3775 41.2664C50.2178 42.1077 50.2204 43.4808 49.3854 44.3274L48.2864 45.4809L48.289 45.4849C48.2614 45.5113 48.2326 45.5351 48.205 45.5616L43.6016 50.2232V50.1848ZM49.7097 54.8424C49.3079 55.2486 48.654 55.2512 48.2509 54.8464L45.5842 52.173L50.1692 47.5313C51.0043 46.6847 52.3672 46.6807 53.2075 47.5233L53.5594 47.8765C54.3998 48.7178 54.4024 50.0909 53.5673 50.9375L49.7097 54.8424ZM89.1065 45.9611C88.6128 46.4585 87.9576 46.7336 87.2604 46.7336H87.2328C86.5264 46.7244 85.866 46.4413 85.3776 45.9293L69.8197 29.7262L67.8581 31.7025L81.323 45.7891C82.3156 46.8209 82.2972 48.4863 81.2862 49.5009C80.7873 49.9983 80.1321 50.2682 79.4349 50.2682H79.4073C78.7009 50.2589 78.0405 49.9758 77.5468 49.4639L64.1239 35.4646L62.1662 37.4369L73.1245 48.8726C74.1119 49.9044 74.0988 51.5698 73.0825 52.5844C72.5888 53.0778 71.9337 53.3516 71.2365 53.3516H71.2089C70.5025 53.3424 69.8381 53.0593 69.3483 52.5421L58.4543 41.1765L56.4966 43.1488L63.428 50.3846C64.4062 51.4309 64.3773 53.0831 63.3505 54.0884L62.9658 54.4654C61.9797 55.4311 60.4054 55.4642 59.3826 54.5369L56.3535 51.7947C56.75 51.0685 56.9627 50.251 56.9601 49.3991C56.9575 48.0763 56.4428 46.8328 55.5119 45.8989L55.16 45.5457C54.4444 44.8288 53.5489 44.3631 52.576 44.1859C53.0605 42.5019 52.6482 40.6116 51.3313 39.2915L50.978 38.937C50.206 38.1631 49.2396 37.7054 48.2378 37.5559C48.591 35.9527 48.1525 34.2053 46.913 32.9631L46.5598 32.61C44.9513 30.9974 42.5052 30.7448 40.6276 31.8401C40.4018 31.0662 39.9882 30.3387 39.3816 29.7302L39.0284 29.377C38.1001 28.4471 36.8685 27.9351 35.5594 27.9351H35.5463C34.2333 27.9391 32.999 28.4563 32.0721 29.3955L28.5742 32.9367H19.3057V7.79665H40.5488L31.7937 14.924L33.4835 16.8447C36.6636 20.4493 42.0654 20.9004 45.7851 17.8672L53.0828 11.9238L62.3014 14.412L74.301 26.8041L74.2984 26.8055L89.1393 42.2506C90.1398 43.2824 90.1214 44.9478 89.1065 45.9611ZM101.681 31.6509L87.565 36.5017L74.3483 22.8476C75.1072 23.0077 75.8937 23.0936 76.6999 23.0936C79.9968 23.0936 82.9708 21.6822 85.0637 19.4295L90.1897 24.5937H115.77V31.6509H101.681ZM72.5429 11.6024C72.5429 13.912 74.4074 15.7904 76.6999 15.7904C78.9911 15.7904 80.8569 13.912 80.8569 11.6024C80.8569 9.29275 78.9924 7.41436 76.6999 7.41436C74.4074 7.41436 72.5429 9.29407 72.5429 11.6024ZM78.0877 11.6024C78.0877 12.3736 77.4654 13.0006 76.7012 13.0006C75.937 13.0006 75.3133 12.3736 75.3133 11.6024C75.3133 10.8312 75.9357 10.2042 76.7012 10.2042C77.4667 10.2042 78.0877 10.8325 78.0877 11.6024Z" fill="black"/>
</svg>
